<!-- Generated by IcoMoon.io -->
<svg version="1.1" xmlns="http://www.w3.org/2000/svg" viewBox="0 0 512 512">
<title></title>
<g id="icomoon-ignore">
</g>
<path d="M128 328v48c0 4.337 3.664 8 8 8h56v-64h-56c-4.336 0-8 3.663-8 8z"></path>
<path d="M224 320h64v64h-64v-64z"></path>
<path d="M376 320h-56v64h56c4.337 0 8-3.663 8-8v-48c0-4.337-3.663-8-8-8z"></path>
<path d="M256 0c-141.385 0-256 114.615-256 256s114.615 256 256 256 256-114.615 256-256-114.615-256-256-256zM288.048 190.258c1.017-23.727 22.606-39.473 40.796-48.569 17.371-8.685 34.551-13.030 35.274-13.211 8.573-2.144 17.259 3.069 19.403 11.642 2.142 8.572-3.070 17.259-11.642 19.402-8.812 2.225-19.261 6.060-28.468 10.675 5.324 5.715 8.587 13.376 8.587 21.803 0 17.673-14.327 32-32 32s-32-14.327-32-32c0.001-0.585 0.020-1.165 0.050-1.742zM128.479 140.12c2.144-8.573 10.83-13.786 19.403-11.642 0.723 0.181 17.903 4.526 35.274 13.211 18.19 9.096 39.78 24.842 40.796 48.569 0.031 0.577 0.049 1.157 0.049 1.742 0 17.673-14.327 32-32 32s-32-14.327-32-32c0-8.427 3.263-16.088 8.587-21.803-9.207-4.615-19.655-8.45-28.468-10.675-8.571-2.143-13.783-10.83-11.641-19.402zM416 376c0 22.056-17.944 40-40 40h-240c-22.056 0-40-17.944-40-40v-48c0-22.056 17.944-40 40-40h240c22.056 0 40 17.944 40 40v48z"></path>
</svg>
